<svg width="78" height="92" viewBox="0 0 78 92" fill="none" xmlns="http://www.w3.org/2000/svg">
<path d="M38.7461 4.21289C38.9027 4.12059 39.0973 4.12059 39.2539 4.21289L74.2539 24.8545C74.4063 24.9444 74.5 25.1082 74.5 25.2852V66.7148C74.5 66.8918 74.4063 67.0556 74.2539 67.1455L39.2539 87.7871C39.0973 87.8794 38.9027 87.8794 38.7461 87.7871L3.74609 67.1455C3.5937 67.0556 3.5 66.8918 3.5 66.7148V25.2852C3.5 25.1082 3.5937 24.9444 3.74609 24.8545L38.7461 4.21289Z" fill="white" stroke="url(#paint0_linear_1452_6903)" stroke-width="7"/>
<path fill-rule="evenodd" clip-rule="evenodd" d="M53.8725 44.5837C53.8386 44.5833 53.7942 44.5833 53.7221 44.5833H49.3845C47.0122 44.5833 45.2499 46.3479 45.2499 48.3333C45.2499 50.3188 47.0122 52.0833 49.3845 52.0833H53.7221C53.7942 52.0833 53.8386 52.0833 53.8725 52.083C53.9044 52.0826 53.9132 52.0821 53.9132 52.0821C54.2567 52.0612 54.4045 51.8293 54.4157 51.6899C54.4157 51.6899 54.416 51.6794 54.4162 51.6643C54.4166 51.6347 54.4166 51.5953 54.4166 51.5278V45.1389C54.4166 45.1015 54.4166 45.0728 54.4165 45.0495C54.4165 45.0308 54.4164 45.0156 54.4162 45.0024C54.416 44.9873 54.4157 44.9768 54.4157 44.9768C54.4045 44.8373 54.2567 44.6055 53.9132 44.5846C53.9132 44.5846 53.9049 44.5841 53.8725 44.5837ZM53.7497 42.0833C53.8604 42.0833 53.967 42.0832 54.065 42.0892C55.5173 42.1776 56.8016 43.273 56.9096 44.803C56.9167 44.9033 56.9167 45.0115 56.9166 45.1117C56.9166 45.1208 56.9166 45.1299 56.9166 45.1389V51.5278C56.9166 51.5368 56.9166 51.5458 56.9166 51.555C56.9167 51.6552 56.9167 51.7634 56.9096 51.8637C56.8016 53.3937 55.5173 54.4891 54.065 54.5775C53.967 54.5834 53.8604 54.5834 53.7497 54.5833C53.7406 54.5833 53.7314 54.5833 53.7221 54.5833H49.3845C45.8092 54.5833 42.7499 51.8707 42.7499 48.3333C42.7499 44.7959 45.8092 42.0833 49.3845 42.0833H53.7221C53.7314 42.0833 53.7406 42.0833 53.7497 42.0833Z" fill="#FFC242"/>
<path d="M50.6666 48.3333C50.6666 49.2538 49.9204 50 48.9999 50C48.0794 50 47.3333 49.2538 47.3333 48.3333C47.3333 47.4129 48.0794 46.6667 48.9999 46.6667C49.9204 46.6667 50.6666 47.4129 50.6666 48.3333Z" fill="#FFC242"/>
<path fill-rule="evenodd" clip-rule="evenodd" d="M53.7497 42.0833C53.8604 42.0833 53.967 42.0832 54.065 42.0892C54.4408 42.1121 54.8053 42.2024 55.141 42.3501C54.9628 39.6727 54.4718 37.6094 52.9312 36.0687C51.6839 34.8215 50.1023 34.2679 48.1483 34.0052L48.0778 33.9959C48.0603 33.9829 48.0424 33.9704 48.024 33.9582L41.7982 29.8301C39.6263 28.39 36.7069 28.39 34.535 29.8301L28.3091 33.9582C28.2908 33.9704 28.2729 33.9829 28.2554 33.9959L28.1849 34.0052C26.2308 34.2679 24.6493 34.8215 23.402 36.0687C22.1547 37.316 21.6012 38.8976 21.3385 40.8516C21.0832 42.7503 21.0832 45.1764 21.0833 48.2393V48.4274C21.0832 51.4903 21.0832 53.9164 21.3385 55.815C21.6012 57.7691 22.1547 59.3507 23.402 60.5979C24.6493 61.8452 26.2308 62.3987 28.1849 62.6614C30.0836 62.9167 32.5096 62.9167 35.5726 62.9167H40.7606C43.8235 62.9167 46.2496 62.9167 48.1483 62.6614C50.1023 62.3987 51.6839 61.8452 52.9312 60.5979C54.4718 59.0573 54.9628 56.994 55.141 54.3166C54.8053 54.4643 54.4408 54.5546 54.065 54.5775C53.967 54.5834 53.8604 54.5834 53.7497 54.5833L53.7221 54.5833H52.6131C52.4234 56.8191 51.9943 57.9993 51.1634 58.8302C50.4581 59.5355 49.492 59.9583 47.8152 60.1837C46.1024 60.414 43.8446 60.4167 40.6666 60.4167H35.6666C32.4886 60.4167 30.2308 60.414 28.518 60.1837C26.8412 59.9583 25.8751 59.5355 25.1698 58.8302C24.4644 58.1248 24.0416 57.1587 23.8162 55.4819C23.5859 53.7691 23.5833 51.5114 23.5833 48.3333C23.5833 45.1553 23.5859 42.8975 23.8162 41.1847C24.0416 39.5079 24.4644 38.5419 25.1698 37.8365C25.8751 37.1312 26.8412 36.7084 28.518 36.4829C30.2308 36.2527 32.4886 36.25 35.6666 36.25H40.6666C43.8446 36.25 46.1024 36.2527 47.8152 36.4829C49.492 36.7084 50.4581 37.1312 51.1634 37.8365C51.9943 38.6674 52.4234 39.8476 52.6131 42.0833H53.7221L53.7497 42.0833ZM35.5726 33.75H40.7606C41.6214 33.75 42.432 33.75 43.1946 33.7556L40.4167 31.9137C39.0821 31.0288 37.2511 31.0288 35.9165 31.9137L33.1385 33.7556C33.9012 33.75 34.7117 33.75 35.5726 33.75Z" fill="#FFC242"/>
<path d="M28.9999 40.4167C28.3096 40.4167 27.7499 40.9763 27.7499 41.6667C27.7499 42.357 28.3096 42.9167 28.9999 42.9167H35.6666C36.3569 42.9167 36.9166 42.357 36.9166 41.6667C36.9166 40.9763 36.3569 40.4167 35.6666 40.4167H28.9999Z" fill="#FFC242"/>
<path fill-rule="evenodd" clip-rule="evenodd" d="M50.6666 48.3333C50.6666 49.2538 49.9204 50 48.9999 50C48.0794 50 47.3333 49.2538 47.3333 48.3333C47.3333 47.4129 48.0794 46.6667 48.9999 46.6667C49.9204 46.6667 50.6666 47.4129 50.6666 48.3333Z" fill="#FFC242"/>
<path d="M37.2363 9.60742C38.3261 8.97172 39.6739 8.97172 40.7637 9.60742L69.7637 26.5244C70.8388 27.1517 71.5 28.3031 71.5 29.5479V63.4521C71.5 64.6969 70.8388 65.8483 69.7637 66.4756L40.7637 83.3926C39.6739 84.0283 38.3261 84.0283 37.2363 83.3926L8.23633 66.4756C7.16116 65.8483 6.5 64.6969 6.5 63.4521V29.5479C6.5 28.3031 7.16116 27.1517 8.23633 26.5244L37.2363 9.60742Z" stroke="black"/>
<defs>
<linearGradient id="paint0_linear_1452_6903" x1="39" y1="0" x2="39" y2="92" gradientUnits="userSpaceOnUse">
<stop stop-color="#FFE3A9"/>
<stop offset="1" stop-color="#FFB900"/>
</linearGradient>
</defs>
</svg>
