<svg width="78" height="91" viewBox="0 0 78 91" fill="none" xmlns="http://www.w3.org/2000/svg">
<path d="M38.7461 3.21289C38.9027 3.12059 39.0973 3.12059 39.2539 3.21289L74.2539 23.8545C74.4063 23.9444 74.5 24.1082 74.5 24.2852V65.7148C74.5 65.8918 74.4063 66.0556 74.2539 66.1455L39.2539 86.7871C39.0973 86.8794 38.9027 86.8794 38.7461 86.7871L3.74609 66.1455C3.5937 66.0556 3.5 65.8918 3.5 65.7148V24.2852C3.5 24.1082 3.5937 23.9444 3.74609 23.8545L38.7461 3.21289Z" fill="white" stroke="url(#paint0_linear_1452_6904)" stroke-width="7"/>
<path d="M53.9247 30.6667C53.9247 33.244 51.9157 35.3334 49.4375 35.3334C46.9593 35.3334 44.9503 33.244 44.9503 30.6667C44.9503 28.0893 46.9593 26 49.4375 26C51.9157 26 53.9247 28.0893 53.9247 30.6667Z" fill="#AEAEAE"/>
<path fill-rule="evenodd" clip-rule="evenodd" d="M35.0039 31.6041C35.38 31.5501 35.8255 31.5009 36.2976 31.5227C36.4412 31.5293 36.6043 31.5414 36.7881 31.5612C41.0646 32.0229 44.2378 35.3609 46.3512 38.6577L46.463 38.8322C47.5449 40.5198 49.3663 41.5336 51.3166 41.5336H54.6538C55.3973 41.5336 56 42.1604 56 42.9336C56 43.7068 55.3973 44.3336 54.6538 44.3336H51.3166C48.4661 44.3336 45.8042 42.852 44.2229 40.3854L44.1111 40.2109C43.622 39.448 43.0966 38.7236 42.5364 38.0605L39.155 42.4559C38.3878 43.4531 37.8732 44.1244 37.5265 44.6759C37.1905 45.2101 37.0945 45.508 37.0691 45.7341C37.027 46.1075 37.0723 46.4858 37.2011 46.837C37.2791 47.0497 37.4423 47.3141 37.8939 47.7464C38.3601 48.1926 39.0172 48.7122 39.996 49.4834C40.0539 49.529 40.111 49.5739 40.1673 49.6183C41.4611 50.6368 42.357 51.3421 42.9771 52.2845C43.3296 52.8202 43.6087 53.4043 43.8065 54.02C44.1543 55.1031 44.1538 56.2717 44.1532 57.9593C44.1532 58.0328 44.1531 58.1073 44.1531 58.1827V61.6C44.1531 62.3732 43.5505 63 42.807 63C42.0635 63 41.4608 62.3732 41.4608 61.6V58.1827C41.4608 56.1844 41.4446 55.5041 41.2528 54.9071C41.1342 54.5376 40.9667 54.1872 40.7552 53.8657C40.4134 53.3463 39.9019 52.922 38.3703 51.7153L38.3184 51.6744C37.4047 50.9546 36.6431 50.3546 36.0707 49.8066C35.4729 49.2344 34.974 48.6216 34.6855 47.8347C34.4021 47.062 34.3025 46.2296 34.3951 45.4083C34.4893 44.5718 34.8285 43.8505 35.2732 43.1434C35.6991 42.4662 36.296 41.6903 37.0121 40.7594L40.5726 36.1314C39.3391 35.1556 37.981 34.5051 36.5102 34.3463C36.3771 34.3319 36.267 34.324 36.1784 34.3199C35.9488 34.3093 35.6919 34.3319 35.3722 34.3778C33.4601 34.6524 31.544 35.7571 27.3829 38.216L24.806 39.7387C24.1596 40.1206 23.3379 39.8853 22.9706 39.213C22.6033 38.5408 22.8296 37.6862 23.476 37.3042L26.0529 35.7815C26.1448 35.7272 26.2359 35.6733 26.3262 35.6199C30.1297 33.3718 32.5159 31.9614 35.0039 31.6041ZM33.9772 51.1914C34.5483 51.6864 34.6255 52.5692 34.1495 53.1632L32.3533 55.405C32.2948 55.478 32.2371 55.5501 32.1802 55.6212C31.0277 57.0616 30.1817 58.1189 29.0008 58.6942C27.8198 59.2695 26.4971 59.2685 24.6954 59.2671C24.6064 59.2671 24.5162 59.267 24.4248 59.267H22.3462C21.6027 59.267 21 58.6402 21 57.867C21 57.0938 21.6027 56.467 22.3462 56.467H24.4248C26.6175 56.467 27.2892 56.436 27.8588 56.1586C28.4284 55.8811 28.8813 55.3643 30.285 53.6124L32.0812 51.3707C32.5572 50.7767 33.406 50.6965 33.9772 51.1914Z" fill="#AEAEAE"/>
<path d="M37.2363 8.60742C38.3261 7.97172 39.6739 7.97172 40.7637 8.60742L69.7637 25.5244C70.8388 26.1517 71.5 27.3031 71.5 28.5479V62.4521C71.5 63.6969 70.8388 64.8483 69.7637 65.4756L40.7637 82.3926C39.6739 83.0283 38.3261 83.0283 37.2363 82.3926L8.23633 65.4756C7.16116 64.8483 6.5 63.6969 6.5 62.4521V28.5479C6.5 27.3031 7.16116 26.1517 8.23633 25.5244L37.2363 8.60742Z" stroke="black"/>
<defs>
<linearGradient id="paint0_linear_1452_6904" x1="39" y1="-1" x2="39" y2="91" gradientUnits="userSpaceOnUse">
<stop stop-color="#ECEFF6"/>
<stop offset="1" stop-color="#B5B5B6"/>
</linearGradient>
</defs>
</svg>
