<svg width="78" height="92" viewBox="0 0 78 92" fill="none" xmlns="http://www.w3.org/2000/svg">
<path d="M38.7461 4.21289C38.9027 4.12059 39.0973 4.12059 39.2539 4.21289L74.2539 24.8545C74.4063 24.9444 74.5 25.1082 74.5 25.2852V66.7148C74.5 66.8918 74.4063 67.0556 74.2539 67.1455L39.2539 87.7871C39.0973 87.8794 38.9027 87.8794 38.7461 87.7871L3.74609 67.1455C3.5937 67.0556 3.5 66.8918 3.5 66.7148V25.2852C3.5 25.1082 3.5937 24.9444 3.74609 24.8545L38.7461 4.21289Z" fill="white" stroke="url(#paint0_linear_1452_6905)" stroke-width="7"/>
<path d="M49.8334 40.9999H46.5001M46.5001 40.9999L43.1667 40.9999M46.5001 40.9999L46.5001 37.6665M46.5001 40.9999L46.5001 44.3332" stroke="#C86B40" stroke-width="1.5" stroke-linecap="round"/>
<path d="M33.9361 58.2977L34.7238 57.3271L33.9361 58.2977ZM38.9999 35.2902L38.0869 36.1439C38.3232 36.3967 38.6538 36.5402 38.9999 36.5402C39.346 36.5402 39.6766 36.3967 39.913 36.1439L38.9999 35.2902ZM44.0637 58.2978L44.8514 59.2684L44.8514 59.2684L44.0637 58.2978ZM38.9999 61L38.9999 59.75L38.9999 61ZM23.4192 48.8036C23.7765 49.3943 24.545 49.5835 25.1357 49.2263C25.7264 48.869 25.9157 48.1005 25.5584 47.5098L24.4888 48.1567L23.4192 48.8036ZM29.8955 52.9511C29.4138 52.4565 28.6225 52.446 28.1279 52.9276C27.6333 53.4092 27.6227 54.2006 28.1044 54.6952L28.9999 53.8231L29.8955 52.9511ZM22.3333 41.5292H23.5833C23.5833 36.6881 25.696 33.6955 28.31 32.672C30.9181 31.6507 34.5672 32.3796 38.0869 36.1439L38.9999 35.2902L39.913 34.4365C35.9329 30.1797 31.2487 28.8365 27.3984 30.3441C23.5539 31.8495 21.0833 35.9868 21.0833 41.5292H22.3333ZM44.0637 58.2978L44.8514 59.2684C47.3387 57.2499 50.3189 54.5446 52.6878 51.5233C55.0326 48.5327 56.9166 45.059 56.9166 41.5291H55.6666H54.4166C54.4166 44.2148 52.9511 47.1357 50.7204 49.9807C48.5138 52.795 45.6925 55.3662 43.2761 57.3271L44.0637 58.2978ZM55.6666 41.5291H56.9166C56.9166 35.9868 54.4459 31.8494 50.6014 30.3441C46.7512 28.8365 42.067 30.1797 38.0869 34.4365L38.9999 35.2902L39.913 36.1439C43.4326 32.3796 47.0817 31.6507 49.6899 32.672C52.3038 33.6955 54.4166 36.6881 54.4166 41.5291H55.6666ZM33.9361 58.2977L33.1485 59.2684C35.2676 60.988 36.7371 62.25 38.9999 62.25L38.9999 61L38.9999 59.75C37.7951 59.75 37.0447 59.2105 34.7238 57.3271L33.9361 58.2977ZM44.0637 58.2978L43.2761 57.3271C40.9552 59.2105 40.2047 59.75 38.9999 59.75L38.9999 61L38.9999 62.25C41.2628 62.25 42.7323 60.988 44.8514 59.2684L44.0637 58.2978ZM24.4888 48.1567L25.5584 47.5098C24.3134 45.4513 23.5833 43.425 23.5833 41.5292H22.3333H21.0833C21.0833 44.0495 22.044 46.5298 23.4192 48.8036L24.4888 48.1567ZM33.9361 58.2977L34.7238 57.3271C33.1954 56.0869 31.4981 54.5969 29.8955 52.9511L28.9999 53.8231L28.1044 54.6952C29.7924 56.4287 31.5665 57.9846 33.1485 59.2684L33.9361 58.2977Z" fill="#C86B40"/>
<path d="M37.2363 9.60742C38.3261 8.97172 39.6739 8.97172 40.7637 9.60742L69.7637 26.5244C70.8388 27.1517 71.5 28.3031 71.5 29.5479V63.4521C71.5 64.6969 70.8388 65.8483 69.7637 66.4756L40.7637 83.3926C39.6739 84.0283 38.3261 84.0283 37.2363 83.3926L8.23633 66.4756C7.16116 65.8483 6.5 64.6969 6.5 63.4521V29.5479C6.5 28.3031 7.16116 27.1517 8.23633 26.5244L37.2363 9.60742Z" stroke="black"/>
<defs>
<linearGradient id="paint0_linear_1452_6905" x1="39" y1="0" x2="39" y2="92" gradientUnits="userSpaceOnUse">
<stop stop-color="#FFC190"/>
<stop offset="1" stop-color="#C35A2A"/>
</linearGradient>
</defs>
</svg>
